<?xml version="1.0" encoding="utf-8"?>
<!-- Generator: Adobe Illustrator 16.0.0, SVG Export Plug-In . SVG Version: 6.00 Build 0)  -->
<!DOCTYPE svg PUBLIC "-//W3C//DTD SVG 1.1//EN" "http://www.w3.org/Graphics/SVG/1.1/DTD/svg11.dtd">
<svg version="1.1" id="Layer_1" xmlns="http://www.w3.org/2000/svg" xmlns:xlink="http://www.w3.org/1999/xlink" x="0px" y="0px"
	 width="643.224px" height="800px" viewBox="0 0 643.224 800" enable-background="new 0 0 643.224 800" xml:space="preserve">
<g>
	<path fill="#FFFFFF" d="M212.677,39.819c10.359-13.584,26.634-23.807,44.183-23.065c13.94-0.371,26.715,6.312,38.104,13.667
		l-1.016-2.58c7.685-0.178,15.642,0.233,22.668,3.663c6.875,3.143,11.924,9.481,14.011,16.686
		c-3.816-3.856-7.658-8.027-12.886-9.907c-5.776-2.511-12.116-3.018-18.346-2.785c-5.186,0.563-9.166-3.211-13.597-5.187
		c-12.912-6.34-28.788-8.137-42.138-2.072c-15.697,6.654-26.99,20.842-33.741,36.128c-4.171,8.616-4.761,18.619-10.072,26.729
		c-3.416,6.188-9.44,10.305-15.367,13.845c-14.051,7.409-30.173,8.849-45.074,13.844c-9.88,2.978-20.006,7.697-25.893,16.548
		c-6.353,8.425-7.189,21.021-0.933,29.734c3.622,5.997,9.056,10.51,14.271,15.08c-0.755,0.068-2.278,0.233-3.033,0.315
		c2.319,4.446,3.91,9.564,2.635,14.6c-1.77,9.454-8.645,16.685-15.519,22.887c-7.218,6.408-16.287,10.071-23.984,15.779
		c-18.524,12.94-30.983,34.729-31.354,57.465c-0.618,16.384,4.995,33.041,15.972,45.294c11.731,13.941,28.732,22.517,46.213,26.798
		c6.792,1.935,13.886,2.36,20.733,4.076c-13.461,0.068-26.977-1.729-39.874-5.599c-18.593-5.406-36.32-16.012-47.435-32.176
		c-8.891-12.61-12.953-28.458-11.388-43.799c1.797-20.444,13.186-39.448,29.363-51.839c8.59-6.916,19.155-10.784,27.676-17.81
		c7.656-6.147,14.723-13.955,17.193-23.697c1.509-5.489,0.384-11.333-2.333-16.246c3.197,1.125,6.463,2.031,9.811,2.593
		c-10.853-6.12-21.94-14.379-25.658-26.852c-3.403-12.843,5.021-25.851,16.013-31.957c19.813-11.128,43.825-10.565,63.872-21.186
		c9.839-4.995,17.797-14.024,20.624-24.781C199.71,61.76,204.773,49.835,212.677,39.819 M332.259,53.061
		c20.43-8.535,42.509-12.939,64.6-13.817c29.363-0.728,59.674,7.587,82.341,26.812c11.459,9.906,23.532,19.306,37.144,26.098
		c10.251,5.008,22.146,9.481,33.563,5.817c-5.874,13.283-6.382,28.76-0.976,42.275c5.929,16.068,18.813,27.841,29.816,40.423
		c15.889,17.797,31.053,37.267,38.228,60.346c5.695,17.948,4.323,38.022-4.239,54.83c-9.975,19.608-26.345,35.25-44.306,47.572
		c-24.055,16.535-52.746,25.302-81.642,28.02c0.466-0.247,1.398-0.728,1.866-0.961c12.774-2.498,25.754-4.651,37.828-9.728
		c22.462-8.494,42.715-22.544,58.769-40.368c13.283-14.778,22.682-33.713,23.216-53.829c-0.246-11.677-2.825-23.244-7.381-33.974
		c-9.385-22.379-25.933-40.546-41.547-58.727c-8.536-9.001-16.303-19.209-19.993-31.216c-4.255-12.707-2.84-26.634,1.839-39.01
		c-7.574,2.237-15.644,1.44-22.941-1.372c-16.809-6.449-30.996-17.961-44.554-29.515c-15.395-13.392-34.948-21.816-55.118-24.589
		c-28.418-4.692-57.479,1.332-84.208,11.115C333.767,57.19,332.999,55.132,332.259,53.061 M346.446,179.255
		c6.86-3.389,14.888,0.151,19.278,5.818c6.092,8.054,9.166,17.975,10.471,27.896c1.755,10.223-0.125,21.734-7.492,29.446
		c-9.07,8.727-25.454,7.478-33.015-2.648c-7.821-10.813-7.505-25.316-4.404-37.762C333.767,193.168,337.911,183.701,346.446,179.255
		 M349.135,184.414c-6.792,3.129-9.508,10.704-11.758,17.29c-3.307,11.278-4.158,24.753,3.251,34.646
		c5.475,7.808,18.099,8.055,24.562,1.4c5.104-6.01,6.284-14.49,5.611-22.105c-1.344-9.564-3.731-19.471-9.864-27.182
		C358.191,185.1,353.458,182.425,349.135,184.414 M499.577,203.033c1.77-0.548,3.621-0.644,5.46-0.905
		c1.921,6.147,1.51,12.761-0.22,18.908c-5.448,21.474-20.994,39.503-40.094,50.234c-8,4.761-16.919,7.615-25.179,11.827
		c-10.812,5.625-21.267,12.226-29.774,21.035c-9.016,8.713-14.834,19.951-21.611,30.352c-1.989,3.183-3.979,6.366-5.859,9.632
		c1.084-0.59,2.183-1.167,3.28-1.743c-0.084,1.646-0.166,3.293-0.234,4.94c-1.222-1.07-2.387-2.196-3.555-3.307
		c-5.486,11.265-11.676,22.229-15.874,34.07c-14.683,37.954-18.374,80.915-5.776,119.965c8.383,27.086,23.476,51.881,42.672,72.668
		c15.561,16.507,33.234,31.283,53.116,42.303c-8.576,0.356-17.166,0.274-25.741,0.274c-17.454-17.508-33.851-36.238-47.271-57.039
		c-16.204-24.616-28.416-52.224-33.109-81.436c-4.884-29.131-1.509-59.496,9.263-86.98c7.918-19.937,15.834-39.957,26.028-58.878
		c6.354-11.499,13.749-22.585,23.367-31.614c12.761-12.431,29.09-20.17,45.31-27.018c23.023-10.249,42.206-30.818,46.802-56.092
		c-11.32,19.306-31.654,31.092-52.346,37.966c-20.074,6.943-41.206,10.182-62.296,12.088c-31.71,2.292-63.845,2.072-95.198-3.677
		c14.243,14.559,21.447,35.044,21.035,55.27c-0.371,8.919,0.522,17.92-0.96,26.784c-2.401,22.078-3.252,44.279-4.61,66.425
		c-0.426,23.121-2.457,46.254-0.906,69.376c1.166,30.392,0.398,60.826,1.564,91.219c-0.274,14.873,0.508,29.748,0.302,44.621
		c-1.88,0.068-3.746,0.109-5.612,0.15c-0.055-0.548-0.192-1.646-0.247-2.182l0.014-0.726c-0.138-50.988-0.893-101.978-2.36-152.939
		c0.892-14.2,0.548-28.43,1.262-42.631c1.399-26.084,2.428-52.211,5.283-78.199c-15.642,2.429-31.71,3.417-47.338,0.261
		c-20.801-3.664-39.078-14.833-57.094-25.234c-19.745-10.922-38.419-23.71-58.315-34.344c14.105,16.37,30.928,30.091,47.434,43.949
		c8.398,7.163,16.137,15.135,22.942,23.862c-4.569-3.444-9.468-6.394-14.613-8.85c-1.373-0.906-2.663-1.894-3.897-2.936
		c-4.034-3.829-8.04-7.671-12.35-11.17c-17.042-13.968-33.603-28.677-47.887-45.5c-4.391-4.926-6.928-11.059-9.852-16.89
		c11.292,5.461,21.542,12.761,32.492,18.839c24.177,14.517,48.122,29.487,73.108,42.577c23.011,12.144,50.261,14.806,75.536,9.399
		c1.797-19.91,0.068-41.438-11.938-58.178c-4.871-7.808-12.39-13.2-19.182-19.183c0.892-1.427,1.812-2.854,2.731-4.281
		c5.887,3.526,12.761,4.459,19.361,5.845c-0.151,0.851-0.466,2.566-0.632,3.417c0.261-0.604,0.796-1.784,1.071-2.388
		c6.765,0.027,13.502,0.769,20.239,1.537c39.078,3.252,78.979,1.715,117.056-8.192c21.09-5.817,42.892-14.667,56.738-32.409
		C494.979,213.572,496.571,207.878,499.577,203.033 M261.443,257.59c5.722-1.482,12.267,0.027,16.163,4.652
		c7.451,8.712,9.359,20.554,9.784,31.669c-0.33,9.097-2.374,18.907-9.139,25.507c-9.138,10.62-29.309,7.78-34.701-5.338
		c-5.297-11.731-2.47-25.164,1.646-36.787C248.518,269.445,252.95,260.746,261.443,257.59 M262.883,262.996
		c-7.587,3.993-11.292,12.542-13.734,20.349c-2.827,9.385-4.94,20.28,0.027,29.336c4.308,8.274,16.657,10.181,23.6,4.185
		c6.82-5.475,8.782-14.709,9.083-23.01c-0.178-8.754-1.811-17.852-6.573-25.344C272.763,264.423,267.796,261.02,262.883,262.996
		 M411.266,661.669c2.36,9.865,5.475,19.525,8.096,29.321c-5.241,0.056-10.496,0.11-15.725-0.096
		C406.654,681.289,409.331,671.562,411.266,661.669 M114.611,744.436c2.84,0,7.834-0.411,7.903,3.69
		c0.11,4.076-5.008,3.555-7.793,3.788C114.68,749.402,114.639,746.918,114.611,744.436 M312.596,744.71
		c3.334,0.096,7.177-0.138,9.797,2.374c3.951,3.869,3.705,10.646,0.521,14.915c-2.415,3.115-6.736,2.963-10.263,3.306
		C312.541,758.444,312.623,751.571,312.596,744.71 M114.598,756.799c4.171-0.853,9.385,0.851,9.042,5.928
		c-2.374,2.427-5.625,3.004-8.892,2.786C114.694,762.603,114.666,759.693,114.598,756.799L114.598,756.799z"/>
	<path fill="#221E1F" d="M207.655,29.089c10.428-12.322,26.605-18.895,42.454-19.964c16.232-1.222,31.957,6.642,42.673,18.496
		c10.991-2.511,23.285-3.691,33.521,2.03c4.556,2.238,7.821,6.216,10.771,10.223c23.52-10.058,49.604-13.118,74.987-11.265
		c23.751,1.688,47.627,8.439,67.192,22.38c16.302,10.84,28.458,27.031,45.733,36.484c7.698,3.417,16.728,7.876,25.151,4.363
		c3.842-1.331,4.583-5.53,6.504-8.589c0.563,0.521,1.687,1.551,2.263,2.058c-4.252,17.261-1.165,35.95,7.74,51.262
		c12.706,22.613,32.917,39.532,48.449,60.045c13.022,16.616,23.106,36.21,25.304,57.451c3.374,24.081-2.703,49.342-16.864,69.128
		c-13.598,19.072-33.316,33.013-54.433,42.687c-23.956,10.964-50.042,16.823-76.249,18.854
		c-26.977,1.509-54.912,0.083-80.105-10.538c-12.088-5.132-23.409-12.5-32.053-22.462c-12.527,28.829-19.224,60.251-19.045,91.7
		c0.508,23.931,5.269,47.832,14.805,69.813c17.165,40.108,46.982,73.807,81.671,99.781c-0.551,0-1.647-0.014-2.196-0.014
		c-19.882-11.02-37.556-25.796-53.116-42.303c-19.196-20.787-34.289-45.582-42.672-72.668
		c-12.598-39.051-8.906-82.012,5.776-119.965c4.198-11.841,10.388-22.805,15.874-34.07c1.168,1.111,2.333,2.236,3.555,3.307
		c15.272,11.594,34.057,17.646,52.677,21.392c16.012,3.032,32.532,4.707,48.766,2.73c28.896-2.718,57.587-11.485,81.642-28.02
		c17.961-12.321,34.331-27.964,44.306-47.572c8.563-16.808,9.935-36.882,4.239-54.83c-7.175-23.079-22.339-42.549-38.228-60.346
		c-11.003-12.583-23.888-24.355-29.816-40.423c-5.406-13.516-4.898-28.993,0.976-42.275c-11.417,3.664-23.313-0.809-33.563-5.817
		c-13.611-6.792-25.685-16.191-37.144-26.098c-22.667-19.224-52.978-27.54-82.341-26.812c-22.091,0.878-44.17,5.283-64.6,13.817
		c-0.576-1.619-1.099-3.252-1.632-4.871c-2.087-7.204-7.136-13.543-14.011-16.686c-7.026-3.43-14.983-3.841-22.668-3.663l1.016,2.58
		c-11.389-7.355-24.164-14.038-38.104-13.667c-17.549-0.741-33.823,9.481-44.183,23.065c-7.904,10.016-12.967,21.94-16.3,34.193
		c-2.827,10.757-10.785,19.786-20.624,24.781c-20.046,10.621-44.059,10.058-63.872,21.186
		c-10.991,6.106-19.416,19.114-16.013,31.957c3.718,12.473,14.805,20.732,25.658,26.852c-3.348-0.562-6.614-1.468-9.811-2.593
		c2.717,4.912,3.843,10.757,2.333,16.246c-2.471,9.742-9.537,17.55-17.193,23.697c-8.521,7.026-19.086,10.895-27.676,17.81
		c-16.177,12.391-27.566,31.395-29.363,51.839c-1.564,15.341,2.497,31.189,11.388,43.799c11.115,16.164,28.842,26.77,47.435,32.176
		c12.897,3.87,26.413,5.667,39.874,5.599c14.75-0.508,29.83-5.022,41.164-14.765c6.202-4.939,10.442-11.717,14.942-18.111
		c1.234,1.042,2.525,2.03,3.897,2.936c-2.703,5.282-5.777,10.346-9.139,15.217c-13.941,15.244-34.426,22.667-54.57,24.958
		c-29.143,2.622-60.62-3.06-83.768-21.954c-16.205-14.696-30.008-33.96-32.794-56.162c-2.003-16.547,4.24-33.178,14.504-45.994
		c10.606-13.076,24.685-23.229,40.258-29.583c9.194-3.924,18.113-8.822,25.454-15.697c4.225-4.199,7.848-9.604,8.123-15.725
		c-0.206-6.353-4.707-12.349-10.826-14.146c-10.374-3.334-21.392-2.072-32.081-2.497c9.961-5.722,21.927-8.658,33.452-8.096
		c-12.198-8.905-17.166-25.96-12.02-40.08c3.801-10.264,13.516-16.727,23.038-21.131c16.479-7.19,34.249-10.593,51.264-16.246
		c8.699-2.909,17.658-6.628,23.655-13.9C194.593,62.432,195.91,42.907,207.655,29.089 M349.135,184.414
		c4.323-1.988,9.057,0.687,11.802,4.048c6.133,7.711,8.521,17.618,9.864,27.182c0.673,7.615-0.507,16.095-5.611,22.105
		c-6.463,6.655-19.087,6.408-24.562-1.4c-7.409-9.893-6.558-23.368-3.251-34.646C339.627,195.117,342.343,187.542,349.135,184.414
		 M448.231,252.197c20.691-6.874,41.025-18.66,52.346-37.966c-4.596,25.274-23.778,45.843-46.802,56.092
		c-16.22,6.847-32.549,14.586-45.31,27.018c-9.618,9.029-17.014,20.115-23.367,31.614c-10.194,18.921-18.11,38.941-26.028,58.878
		c-10.771,27.484-14.146,57.849-9.263,86.98c4.693,29.212,16.905,56.819,33.109,81.436c13.42,20.801,29.816,39.531,47.271,57.039
		c-13.407,0.097-26.825-0.329-40.204,0.673c-27.606,0.109-55.214,0.026-82.821,0.343c0.207-14.873-0.576-29.748-0.302-44.621
		c-1.166-30.393-0.398-60.827-1.564-91.219c-1.551-23.122,0.48-46.255,0.906-69.376c1.357-22.146,2.208-44.348,4.61-66.425
		c1.482-8.864,0.589-17.865,0.96-26.784c0.412-20.225-6.792-40.711-21.035-55.27c31.353,5.75,63.488,5.969,95.198,3.677
		C407.025,262.378,428.157,259.14,448.231,252.197 M382.3,344.116c1.88-3.266,3.87-6.449,5.859-9.632
		c-1.029,2.566-1.894,5.2-2.579,7.889C384.482,342.95,383.384,343.526,382.3,344.116 M58.533,654.012
		c10.853-7.477,25.672-6.462,37.446-1.742c-1.263,4.281-2.471,8.576-3.637,12.896c-7.163-2.331-15.519-5.309-22.668-1.302
		c-3.484,1.551-3.924,6.751-1.11,9.221c4.761,4.116,11.223,5.227,16.712,8.067c5.667,2.773,11.087,7.218,12.802,13.544
		c0.864,5.049,0.934,10.523-1.509,15.19c-3.389,6.873-10.73,10.825-18.029,12.21c-9.825,1.55-20.211,0.604-29.268-3.622
		c1.001-4.624,2.181-9.193,3.636-13.694c7.107,3.65,15.518,5.737,23.436,3.856c4.803-0.851,7.587-7.203,4.405-11.073
		c-2.731-3.485-7.218-4.596-11.142-6.161c-5.941-2.264-12.143-5.076-15.944-10.414C47.679,672.7,49.875,659.609,58.533,654.012
		 M106.433,649.84c14.751,0.042,29.501,0.015,44.238,0.015c0,4.486,0.041,8.975-0.068,13.461
		c-9.332-0.151-18.648-0.014-27.979-0.056c0.041,4.886,0.055,9.77,0,14.654c8.864-0.096,17.742,0.124,26.62-0.15
		c0.096,4.5,0.082,9.001,0.082,13.515c-8.905,0.056-17.797-0.081-26.702,0.097c0.041,5.57,0.055,11.143,0,16.713
		c9.976-0.056,19.937,0.109,29.912-0.068c0.137,4.514,0.178,9.028-0.055,13.543c-15.326-0.179-30.653-0.055-45.98-0.068
		C106.475,697.605,106.64,673.716,106.433,649.84 M203.032,650.005c5.406-0.274,10.825-0.109,16.246-0.178
		c0.124,23.889-0.069,47.792,0.041,71.693c-5.42-0.068-10.826,0.028-16.246-0.151c0.123-9.823,0.165-19.647,0.055-29.459
		c-8.85,0.207-17.893-0.728-26.619,0.452c-0.178,9.688-0.096,19.402,0.014,29.104c-5.407,0.028-10.826,0.028-16.218-0.041
		c0.15-23.861,0.082-47.723,0.013-71.585c5.393,0,10.786,0.028,16.191,0.028c-0.124,9.152-0.096,18.317-0.027,27.484
		c8.864-0.097,17.728-0.055,26.578-0.015C203.237,668.228,203.21,659.116,203.032,650.005 M229.39,649.319
		c5.968-0.027,11.923-0.068,17.893,0.055c0.027,4.515,0,9.042,0.055,13.557c-5.941,0.178-11.897,0.165-17.838,0.055
		C229.417,658.431,229.445,653.875,229.39,649.319 M252.181,649.95c18.304-0.233,36.608,0.015,54.913-0.137
		c0.068,4.569,0.068,9.152-0.042,13.722c-6.518-0.014-13.021,0.026-19.525-0.014c0.137,19.32,0,38.639,0.055,57.958
		c-5.379,0-10.758,0-16.136-0.014c0.165-19.306-0.042-38.61,0.096-57.918c-6.435-0.013-12.857,0.042-19.292-0.096
		C252.332,658.952,252.359,654.451,252.181,649.95 M316.026,649.785c5.256,0.083,10.524,0.083,15.793,0.069
		c-0.027,10.607-0.014,21.199,0.013,31.806c7.096-10.646,14.284-21.226,21.475-31.806c6.71,0,13.42,0.056,20.144-0.055
		c-7.753,10.222-15.616,20.376-23.601,30.406c8.164,13.872,16.644,27.552,24.945,41.343c-6.45-0.055-12.912-0.069-19.361-0.069
		c-5.447-10.4-11.513-20.432-17.192-30.681c-2.141,2.606-4.336,5.173-6.449,7.794c0.04,7.63,0.027,15.258,0,22.901
		c-5.283-0.028-10.551-0.015-15.821-0.015C315.889,697.577,315.779,673.674,316.026,649.785 M401.291,649.813
		c7.121,0.055,14.242,0.097,21.363-0.028c7.629,23.834,14.765,47.82,22.325,71.667c-5.929,0.042-11.856,0.068-17.77-0.027
		c-1.66-6.05-3.554-12.021-5.256-18.057c-6.833-0.11-13.665,0-20.5-0.097c-1.771,5.996-3.539,12.007-4.897,18.126
		c-5.735,0.137-11.472,0.11-17.193,0.068C386.746,697.605,393.936,673.688,401.291,649.813 M411.266,661.669
		c-1.935,9.893-4.611,19.62-7.629,29.226c5.229,0.206,10.483,0.151,15.725,0.096C416.74,681.194,413.626,671.534,411.266,661.669
		 M454.2,649.95c7.3-0.165,14.599-0.068,21.898-0.068c4.747,16.369,9.631,32.711,13.117,49.41
		c3.993-16.699,9.222-33.026,14.423-49.369c7.147-0.123,14.297-0.068,21.445,0c1.344,23.861,2.635,47.724,3.951,71.585
		c-5.337-0.042-10.675-0.014-15.998-0.068c-0.836-18.579-1.373-37.171-1.771-55.766c-5.461,18.347-11.13,36.638-16.878,54.901
		c-4.252,0.149-8.52,0.137-12.76,0.026c-4.996-18.249-10.25-36.43-14.258-54.912c-0.781,18.593-1.632,37.198-2.619,55.79
		c-4.995-0.014-9.976,0.028-14.956-0.027C451.03,697.605,452.841,673.784,454.2,649.95 M538.229,649.209
		c5.913,0.151,11.829,0.11,17.755,0.028c0.097,4.583,0.056,9.179,0.042,13.776c-5.996,0.055-11.993,0.068-17.975,0.026
		C538.201,658.431,538.16,653.82,538.229,649.209 M567.468,649.84c5.503,0.015,11.006,0.028,16.521,0.028
		c-0.082,19.415,0.055,38.832-0.082,58.247c9.55-0.055,19.1,0.068,28.649-0.096c-0.055,4.445-0.068,8.891,0,13.35
		c-15.011,0.248-30.021,0.028-45.033,0.125C567.551,697.619,567.676,673.729,567.468,649.84 M229.349,671.302
		c5.969-0.097,11.951-0.083,17.92,0.04c0.096,16.892-0.082,33.781,0.124,50.673c-5.955,0.027-11.924,0.082-17.879-0.083
		C229.293,705.055,229.637,688.179,229.349,671.302 M538.214,671.314c5.915-0.096,11.844-0.123,17.784-0.013
		c0.068,16.877,0.068,33.753,0.014,50.645c-5.996,0.137-11.993,0.124-17.976,0C538.366,705.068,538.077,688.192,538.214,671.314
		 M63.486,724.773c6.874,0.012,13.749-0.097,20.637,0.068c-0.11,3.169-0.151,6.353-0.151,9.55c-6.86-0.014-13.721-0.014-20.582,0
		C63.362,731.167,63.403,727.97,63.486,724.773 M360.977,738.521c2.813-0.054,5.626-0.054,8.452-0.04c0,1.824,0,3.662,0.014,5.515
		c-2.716-0.014-5.434-0.014-8.149-0.026C361.183,742.144,361.073,740.319,360.977,738.521 M503.171,740.36
		c4.486-1.646,9.618-1.441,14.091,0.179c-0.424,1.88-0.822,3.787-1.207,5.693c-2.235-0.59-4.487-1.139-6.708-1.674
		c-1.358,0.494-2.705,0.987-4.049,1.495c-1.126,5.077,5.008,5.406,8.179,7.259c6.022,2.319,6.805,11.786,1.385,15.148
		c-5.146,3.431-11.76,2.113-17.385,0.796c0.397-1.975,0.796-3.952,1.221-5.913c2.689,0.671,5.394,1.302,8.096,2.004
		c1.975-0.811,3.952-1.702,5.282-3.473c-2.702-4.733-8.959-4.459-12.375-8.287C496.241,749.375,497.998,742.255,503.171,740.36
		 M547.601,738.563c2.8-0.081,5.611-0.095,8.438-0.095c0,1.838,0,3.676,0.013,5.528c-2.716-0.014-5.419-0.014-8.123-0.04
		C547.806,742.144,547.696,740.346,547.601,738.563 M107.82,739.948c6.449-0.343,13.762-1.92,19.483,1.976
		c4.089,3.074,2.429,9.632-1.866,11.732c4.679,2.112,6.958,7.931,3.883,12.349c-5.2,6.079-14.242,4.31-21.323,4.295
		C107.75,760.173,108.039,750.061,107.82,739.948 M114.611,744.436c0.027,2.482,0.069,4.967,0.11,7.479
		c2.786-0.233,7.903,0.288,7.793-3.788C122.446,744.024,117.452,744.436,114.611,744.436 M114.598,756.799
		c0.068,2.895,0.096,5.804,0.151,8.714c3.266,0.218,6.518-0.359,8.892-2.786C123.983,757.649,118.769,755.946,114.598,756.799
		 M160.125,770.369c-0.137-10.278-0.247-20.555,0.055-30.832c6.27,0.206,12.541,0.083,18.825,0.027
		c-0.055,1.92-0.096,3.855-0.124,5.79c-4.006,0.014-7.999,0.027-11.979,0.014c-0.042,2.1-0.082,4.213-0.124,6.34
		c3.787,0,7.574,0.014,11.361-0.055c0,1.811,0,3.649,0.014,5.488c-3.746,0-7.506,0.014-11.238-0.042
		c-0.055,2.416-0.083,4.831-0.11,7.258c4.213-0.013,8.425-0.026,12.637-0.149c0.014,2.03,0.041,4.088,0.069,6.146
		C173.036,770.273,166.574,770.163,160.125,770.369 M208.972,739.523c2.319,0.055,4.652,0.097,6.985,0.137c0,8.206,0,16.41,0,24.616
		c4.034,0.096,8.068,0.096,12.102,0.026c0,1.99-0.013,3.993-0.013,6.012c-6.367-0.097-12.734-0.109-19.087,0.082
		C208.835,760.104,208.794,749.814,208.972,739.523 M256.613,739.537c6.34,0.192,12.692,0.013,19.045,0.192
		c-0.041,1.838-0.068,3.677-0.068,5.528c-3.952,0.124-7.904,0.139-11.842,0.097c0.027,2.127,0.068,4.253,0.137,6.394
		c3.691-0.054,7.383-0.054,11.087-0.04c0.027,1.33,0.083,3.964,0.097,5.283c-3.718,0.191-7.438,0.205-11.142,0.096
		c-0.069,2.387-0.11,4.788-0.11,7.189c4.158,0.055,8.315,0.081,12.487,0.123c-0.014,1.949-0.027,3.911-0.027,5.874
		c-6.559,0-13.104,0-19.649,0.013C256.723,760.036,256.668,749.787,256.613,739.537 M305.749,739.784
		c6.751-0.274,14.05-1.427,20.279,1.906c9.537,5.477,8.673,21.584-0.905,26.551c-5.955,3.103-12.911,2.252-19.36,1.99
		C305.886,760.079,305.817,749.938,305.749,739.784 M312.596,744.71c0.027,6.861-0.055,13.734,0.055,20.595
		c3.527-0.343,7.848-0.19,10.263-3.306c3.184-4.269,3.43-11.046-0.521-14.915C319.772,744.572,315.93,744.806,312.596,744.71
		 M395.911,739.578c2.717,0.042,5.448,0.055,8.192,0.055c1.715,4.281,3.484,8.548,5.365,12.774
		c1.577-3.499,3.033-7.053,4.321-10.648c-0.356-0.343-1.084-1.028-1.44-1.358c3.389-0.424,6.779-0.795,10.195-1
		c-2.388,5.281-5.571,10.126-8.315,15.216c-3.074,4.611-1.469,10.428-1.716,15.602c-2.277,0.042-4.542,0.11-6.791,0.192
		c-0.179-4.322,0.068-8.658-0.262-12.968C402.456,751.392,398.971,745.602,395.911,739.578 M449.809,739.66
		c6.298-0.082,12.596,0.028,18.895-0.014c-0.027,1.907-0.041,3.828-0.055,5.763c-3.87-0.013-7.753-0.22-11.608,0.068
		c-0.947,1.729-0.178,4.186-0.385,6.217c3.842,0.042,7.699,0.027,11.567,0.014c-0.068,1.824-0.123,3.663-0.166,5.517
		c-3.785-0.097-7.56-0.083-11.333-0.028c-0.026,2.374-0.041,4.761-0.026,7.148c4.253,0.041,8.493,0.041,12.747-0.056
		c0.04,2.018,0.082,4.063,0.096,6.107c-6.558-0.263-13.131-0.082-19.689-0.097C449.876,760.091,449.919,749.869,449.809,739.66
		 M361.225,749.416c2.703,0,5.42-0.026,8.136-0.082c0.151,7.328,0.082,14.668,0.028,22.01c-2.73,0.068-5.448,0.123-8.15,0.178
		C361.128,764.152,361.142,756.785,361.225,749.416 M547.848,749.375c2.703,0.027,5.42,0.041,8.136,0.027
		c0.097,7.328,0.068,14.668,0.015,21.996c-2.786,0.014-5.558-0.015-8.315-0.069C547.902,764.002,547.655,756.688,547.848,749.375
		L547.848,749.375z"/>
	<path fill="#71BF45" d="M243.661,28.239c13.35-6.065,29.226-4.268,42.138,2.072c4.432,1.976,8.411,5.75,13.597,5.187
		c6.229-0.233,12.569,0.274,18.346,2.785c5.228,1.88,9.069,6.051,12.886,9.907c0.533,1.619,1.056,3.252,1.632,4.871
		c0.74,2.071,1.508,4.13,2.305,6.202c26.729-9.784,55.79-15.808,84.208-11.115c20.17,2.772,39.724,11.197,55.118,24.589
		c13.558,11.553,27.745,23.065,44.554,29.515c7.298,2.813,15.367,3.609,22.941,1.372c-4.679,12.376-6.094,26.304-1.839,39.01
		c3.69,12.006,11.457,22.214,19.993,31.216c15.614,18.181,32.162,36.348,41.547,58.727c4.556,10.729,7.135,22.297,7.381,33.974
		c-0.534,20.115-9.933,39.051-23.216,53.829c-16.054,17.824-36.307,31.874-58.769,40.368c-12.074,5.077-25.054,7.23-37.828,9.728
		c-0.468,0.233-1.4,0.714-1.866,0.961c-16.233,1.976-32.754,0.302-48.766-2.73c-18.62-3.746-37.404-9.798-52.677-21.392
		c0.068-1.647,0.15-3.294,0.234-4.94c0.686-2.689,1.55-5.323,2.579-7.889c6.777-10.401,12.596-21.639,21.611-30.352
		c8.508-8.809,18.963-15.409,29.774-21.035c8.26-4.212,17.179-7.066,25.179-11.827c19.1-10.731,34.646-28.76,40.094-50.234
		c1.729-6.147,2.141-12.761,0.22-18.908c-1.839,0.261-3.69,0.356-5.46,0.905c-3.006,4.845-4.599,10.539-8.467,14.875
		c-13.847,17.742-35.648,26.592-56.738,32.409c-38.076,9.907-77.978,11.444-117.056,8.192c-6.737-0.768-13.475-1.509-20.239-1.537
		c-0.274,0.604-0.81,1.784-1.071,2.388c0.166-0.852,0.481-2.567,0.632-3.417c-6.6-1.386-13.474-2.319-19.361-5.845
		c-0.919,1.427-1.839,2.854-2.731,4.281c6.792,5.983,14.312,11.375,19.182,19.183c12.007,16.74,13.736,38.268,11.938,58.178
		c-25.275,5.406-52.525,2.745-75.536-9.399c-24.986-13.09-48.931-28.06-73.108-42.577c-10.949-6.078-21.199-13.377-32.492-18.839
		c2.923,5.832,5.46,11.964,9.852,16.89c14.285,16.823,30.846,31.532,47.887,45.5c4.31,3.499,8.315,7.341,12.35,11.17
		c-4.5,6.394-8.74,13.172-14.942,18.111c-11.334,9.743-26.413,14.257-41.164,14.765c-6.847-1.715-13.941-2.141-20.733-4.076
		c-17.481-4.281-34.481-12.857-46.213-26.798c-10.977-12.253-16.59-28.91-15.972-45.294c0.371-22.736,12.829-44.525,31.354-57.465
		c7.697-5.708,16.767-9.372,23.984-15.779c6.874-6.202,13.749-13.433,15.519-22.887c1.275-5.036-0.315-10.154-2.635-14.6
		c0.755-0.082,2.278-0.248,3.033-0.315c-5.214-4.57-10.648-9.083-14.271-15.08c-6.256-8.712-5.419-21.309,0.933-29.734
		c5.887-8.851,16.013-13.57,25.893-16.548c14.901-4.995,31.023-6.435,45.074-13.844c5.927-3.541,11.951-7.657,15.367-13.845
		c5.311-8.109,5.901-18.112,10.072-26.729C216.671,49.081,227.963,34.893,243.661,28.239 M346.446,179.255
		c-8.535,4.446-12.68,13.913-15.162,22.75c-3.101,12.446-3.417,26.949,4.404,37.762c7.561,10.126,23.944,11.375,33.015,2.648
		c7.367-7.712,9.247-19.223,7.492-29.446c-1.305-9.92-4.379-19.841-10.471-27.896C361.334,179.406,353.307,175.866,346.446,179.255
		 M261.443,257.59c-8.493,3.156-12.925,11.855-16.246,19.703c-4.116,11.623-6.943,25.056-1.646,36.787
		c5.392,13.118,25.563,15.958,34.701,5.338c6.765-6.6,8.809-16.41,9.139-25.507c-0.425-11.115-2.333-22.957-9.784-31.669
		C273.71,257.617,267.165,256.108,261.443,257.59 M225.48,611.614l0.15,0.081c0.618,0.316,1.839,0.947,2.443,1.263
		c15.559,0.672,31.146-0.137,46.72,0.151c8.836-0.275,17.92,1.165,26.524-1.563l-0.014,0.726c-0.384,0.796-1.153,2.401-1.537,3.196
		c-54.117,0.068-108.206-0.025-162.323,0.263c16.026-0.48,32.066,0.055,48.093-0.288c13.131-1.305,26.359-0.466,39.544-0.617
		C225.177,614.015,225.37,612.409,225.48,611.614 M545.077,782.841c15.038-1.222,30.145-0.466,45.224-0.7
		c15.135-0.04,30.27-0.288,45.417-0.137c2.046,0,4.062,0.494,6.079,0.947c-0.123,4.664-0.123,9.344,0,14.022
		c-8.864,1.428-17.864,0.659-26.797,0.646c-43.868,0.536-87.764,0.138-131.629,0.741c-14.175,0.22-28.403-0.673-42.537,0.754
		c-55.352,0.083-110.702,0.248-166.041,0.631c-14.682,0.138-29.377-0.452-44.018,0.741c-64.462-0.068-128.912,0.521-193.36,0.604
		c-6.545,0.233-13.172,1.62-19.663-0.012c0.11-4.57-0.343-9.126-0.233-13.695c0.412-0.288,1.222-0.878,1.62-1.181
		c37.637-0.438,75.274-0.451,112.912-0.562c18.689-1.536,37.473-0.384,56.203-0.823c39.778-0.165,79.556-0.22,119.334-0.549
		c13.762-0.109,27.552,0.535,41.272-0.74C414.271,783.554,479.666,783.046,545.077,782.841L545.077,782.841z"/>
	<path fill="#8C6337" d="M262.883,262.996c4.913-1.976,9.879,1.427,12.404,5.516c4.762,7.492,6.395,16.589,6.573,25.344
		c-0.301,8.301-2.264,17.535-9.083,23.01c-6.943,5.996-19.292,4.089-23.6-4.185c-4.967-9.056-2.854-19.951-0.027-29.336
		C251.591,275.538,255.296,266.989,262.883,262.996 M142.754,278.46c19.896,10.634,38.57,23.422,58.315,34.344
		c18.016,10.401,36.293,21.57,57.094,25.234c15.628,3.156,31.696,2.168,47.338-0.261c-2.854,25.988-3.883,52.114-5.283,78.199
		c-0.714,14.201-0.371,28.431-1.262,42.631c1.467,50.962,2.223,101.951,2.36,152.939c-8.604,2.729-17.688,1.288-26.524,1.563
		c-15.574-0.288-31.161,0.521-46.72-0.151c-0.604-0.315-1.825-0.946-2.443-1.263c7.479-22.941,14.792-45.966,20.116-69.513
		c-10.936,25.783-25.371,50.153-43.702,71.393c1.537-4.048,4.089-7.56,6.215-11.291c14.559-26.565,25.782-55.064,32.163-84.729
		c6.6-30.998,9.028-63.408,2.826-94.664c-5.899-30.585-20.485-59.455-42.014-81.999c-0.535,0.137-1.606,0.384-2.127,0.508
		c-2.799,4.088-5.626,8.342-9.728,11.238c3.362-4.872,6.436-9.935,9.139-15.217c5.145,2.456,10.043,5.406,14.613,8.85
		c-6.806-8.727-14.544-16.699-22.942-23.862C173.682,308.551,156.859,294.83,142.754,278.46L142.754,278.46z"/>
	<path fill="#0BB7DD" d="M301.303,612.271c0.055,0.536,0.192,1.634,0.247,2.182c1.866-0.041,3.732-0.082,5.612-0.15
		c27.607-0.316,55.215-0.233,82.821-0.343c13.379-1.002,26.797-0.576,40.204-0.673c8.575,0,17.165,0.082,25.741-0.274
		c0.549,0,1.646,0.014,2.196,0.014c39.475,0.494,78.965-0.247,118.44-0.179c10.059-0.095,20.171,0.494,30.16-0.945
		c12.13,0.438,24.423-0.906,36.456,0.795c-0.232,4.733-0.232,9.495,0.042,14.243c-4.267,1.288-8.74,0.822-13.117,0.836
		c-42.098-0.055-84.181,0.412-126.264,0.357c-4.61,0-9.137,1.07-13.749,0.947c-63.075-0.22-126.153,0.411-189.229,0.397
		c-5.997-0.329-11.869,1.152-17.838,1.016c-62.665-0.233-125.316,0.314-187.968,0.37c-6.901-0.438-13.694,1.29-20.595,1.002
		c-14.202-0.028-28.417-0.082-42.632-0.014c-4.336-0.015-8.768,0.452-12.98-0.824c0.206-4.732,0.164-9.453-0.042-14.174
		c2.511-0.479,5.036-0.919,7.615-0.864c37.006,0,74.013-0.082,111.019-0.26c54.117-0.288,108.206-0.194,162.323-0.263
		C300.15,614.673,300.919,613.067,301.303,612.271L301.303,612.271z"/>
</g>
</svg>
